<?xml version="1.0" standalone="no"?>
<!DOCTYPE svg PUBLIC "-//W3C//DTD SVG 20010904//EN"
 "http://www.w3.org/TR/2001/REC-SVG-20010904/DTD/svg10.dtd">
<svg version="1.0" xmlns="http://www.w3.org/2000/svg"
 width="512.000000pt" height="512.000000pt" viewBox="0 0 512.000000 512.000000"
 preserveAspectRatio="xMidYMid meet">

<g transform="translate(0.000000,512.000000) scale(0.100000,-0.100000)"
fill="#000000" stroke="none">
<path d="M1292 5080 c-18 -11 -41 -34 -52 -52 -19 -32 -20 -52 -20 -628 0
-576 1 -596 20 -628 11 -18 34 -41 52 -52 32 -19 52 -20 454 -20 l421 0 147
-220 c154 -232 181 -260 246 -260 65 0 92 28 246 259 l147 220 428 3 c414 3
428 4 456 24 65 47 63 28 63 674 0 652 2 630 -69 677 l-34 23 -1236 0 c-1216
0 -1237 0 -1269 -20z m2328 -680 l0 -420 -387 0 c-368 0 -390 -1 -420 -20 -21
-12 -71 -77 -139 -180 -59 -88 -110 -160 -114 -160 -4 0 -55 72 -114 160 -68
103 -118 168 -139 180 -30 19 -52 20 -419 20 l-388 0 0 420 0 420 1060 0 1060
0 0 -420z"/>
<path d="M1852 4520 c-94 -57 -94 -183 0 -240 41 -25 82 -25 127 -2 101 51
106 183 9 242 -18 11 -49 20 -68 20 -19 0 -50 -9 -68 -20z"/>
<path d="M2492 4520 c-94 -57 -94 -183 0 -240 41 -25 82 -25 127 -2 101 51
106 183 9 242 -18 11 -49 20 -68 20 -19 0 -50 -9 -68 -20z"/>
<path d="M3132 4520 c-94 -57 -94 -183 0 -240 41 -25 82 -25 127 -2 101 51
106 183 9 242 -18 11 -49 20 -68 20 -19 0 -50 -9 -68 -20z"/>
<path d="M410 3005 c-146 -41 -256 -153 -294 -300 -13 -49 -16 -136 -16 -520
0 -441 1 -461 20 -493 59 -97 191 -92 242 9 15 29 18 63 18 217 l0 182 140 0
140 0 0 -187 c0 -170 2 -191 20 -221 59 -97 190 -92 243 9 16 31 17 71 15 514
-3 473 -3 481 -26 535 -46 114 -132 199 -242 241 -72 28 -188 34 -260 14z
m178 -285 c61 -37 72 -69 72 -212 l0 -128 -140 0 -140 0 0 128 c0 109 3 132
20 160 26 42 76 72 120 72 19 0 50 -9 68 -20z"/>
<path d="M1212 3001 c-18 -12 -41 -35 -52 -53 -19 -32 -20 -52 -20 -629 l0
-596 23 -34 c43 -65 67 -70 292 -66 178 3 206 5 255 25 247 100 343 388 204
615 l-35 57 35 58 c139 226 43 514 -204 614 -49 20 -76 22 -260 25 -192 4
-207 3 -238 -16z m416 -281 c49 -30 74 -76 69 -129 -10 -91 -68 -131 -194
-131 l-83 0 0 140 0 140 88 0 c69 0 94 -4 120 -20z m0 -560 c49 -30 74 -76 69
-129 -10 -91 -68 -131 -194 -131 l-83 0 0 140 0 140 88 0 c69 0 94 -4 120 -20z"/>
<path d="M2490 3005 c-147 -41 -257 -154 -295 -303 -14 -52 -16 -117 -13 -410
3 -333 4 -349 26 -402 46 -113 130 -197 242 -242 43 -17 75 -22 150 -22 75 0
107 5 150 22 112 45 196 129 242 242 23 54 23 63 23 430 0 367 0 376 -23 430
-46 114 -132 199 -242 241 -72 28 -188 34 -260 14z m178 -285 c18 -11 41 -34
52 -52 19 -31 20 -51 20 -343 0 -275 -2 -314 -18 -344 -51 -101 -183 -106
-242 -9 -19 31 -20 51 -20 348 0 297 1 317 20 348 26 42 76 72 120 72 19 0 50
-9 68 -20z"/>
<path d="M3292 3000 c-18 -11 -41 -34 -52 -52 -20 -32 -20 -47 -18 -518 3
-478 3 -486 26 -540 46 -113 130 -197 242 -242 78 -31 222 -31 300 0 112 45
196 129 242 242 23 54 23 62 26 540 2 471 2 486 -18 518 -58 94 -183 94 -240
0 -19 -32 -20 -52 -20 -483 0 -409 -2 -453 -18 -484 -51 -101 -183 -106 -242
-9 -19 32 -20 52 -20 488 0 436 -1 456 -20 488 -26 42 -76 72 -120 72 -19 0
-50 -9 -68 -20z"/>
<path d="M4252 3000 c-94 -57 -94 -183 0 -240 26 -16 51 -20 121 -20 l87 0 0
-507 c0 -489 1 -509 20 -541 59 -97 191 -92 242 9 16 31 18 78 18 537 l0 502
83 0 c126 0 184 40 194 131 5 53 -20 99 -69 129 -31 19 -51 20 -348 20 -297 0
-317 -1 -348 -20z"/>
<path d="M1692 1400 c-18 -11 -41 -34 -52 -52 -20 -32 -20 -47 -18 -518 3
-478 3 -486 26 -540 46 -113 130 -197 242 -242 78 -31 222 -31 300 0 112 45
196 129 242 242 23 54 23 62 26 540 2 471 2 486 -18 518 -58 94 -183 94 -240
0 -19 -32 -20 -52 -20 -483 0 -409 -2 -453 -18 -484 -51 -101 -183 -106 -242
-9 -19 32 -20 52 -20 488 0 436 -1 456 -20 488 -42 68 -124 91 -188 52z"/>
<path d="M2970 1404 c-299 -80 -408 -452 -201 -685 71 -80 201 -139 306 -139
82 0 150 -70 142 -149 -6 -52 -31 -90 -78 -113 -28 -15 -62 -18 -204 -18 -152
0 -173 -2 -203 -20 -94 -57 -94 -182 0 -241 31 -19 46 -20 238 -16 184 3 211
5 260 25 112 45 197 130 242 242 17 43 22 75 22 150 0 75 -5 107 -22 150 -62
154 -196 253 -364 267 -77 7 -119 28 -148 75 -39 64 -16 146 52 188 30 18 51
20 203 20 142 0 176 3 204 18 101 51 106 183 9 242 -30 18 -50 20 -218 19
-130 0 -201 -5 -240 -15z"/>
</g>
</svg>
